# xmcd
#
# Track frame offsets: 
#        150
#        12968
#        29447
#        44007
#        61236
#        76215
#        90019
#        103837
#        115276
#        124607
#        136792
#        147449
#
# Disc length: 2148 seconds
#
# Revision: 0
# Processed by: cddbd v1.5.2PL0 Copyright (c) Steve Scherf et al.
# Submitted via: ExactAudioCopyFreeDBPlugin 1.0
#
DISCID=9808620c
DTITLE=Pete Drake - Pete Drake
DYEAR=1996
DGENRE=Country
TTITLE0=Something (Harrison)
TTITLE1=Hey Jude (Lennon and McCartney)
TTITLE2=Lay Lady Lay (Dylan)
TTITLE3=Isn't It A Pity (Harrison)
TTITLE4=Behind That Locked Door (Harrison)
TTITLE5=Yesterday (Lennon and McCartney)
TTITLE6=Get Back (Lennon and McCartney)
TTITLE7=The Mighty Quinn (Dylan)
TTITLE8=Country Pie (Dylan)
TTITLE9=Funny Bone (Drake)
TTITLE10=Pleading (Drake)
TTITLE11=Talking Steel Guitar (Drake)
EXTD=
EXTT0=
EXTT1=
EXTT2=
EXTT3=
EXTT4=
EXTT5=
EXTT6=
EXTT7=
EXTT8=
EXTT9=
EXTT10=
EXTT11=
PLAYORDER=
